<svg width="38" height="38" viewBox="0 0 38 38" fill="none" xmlns="http://www.w3.org/2000/svg">
<g filter="url(#filter0_d_4683_61088)">
<circle cx="19" cy="18" r="16" fill="#161E24"/>
</g>
<path d="M19.1737 13.165C19.1272 13.1205 19.0653 13.0957 19.0009 13.0957C18.9365 13.0957 18.8746 13.1205 18.8281 13.165L13.075 18.661C13.0505 18.6844 13.0311 18.7124 13.0178 18.7435C13.0045 18.7746 12.9977 18.8081 12.9978 18.8419L12.9968 24C12.9968 24.2653 13.1022 24.5196 13.2897 24.7072C13.4773 24.8947 13.7316 25 13.9968 25H17C17.1326 25 17.2597 24.9474 17.3535 24.8536C17.4473 24.7598 17.5 24.6327 17.5 24.5V20.25C17.5 20.1837 17.5263 20.1202 17.5732 20.0733C17.6201 20.0264 17.6836 20 17.75 20H20.25C20.3163 20 20.3798 20.0264 20.4267 20.0733C20.4736 20.1202 20.5 20.1837 20.5 20.25V24.5C20.5 24.6327 20.5526 24.7598 20.6464 24.8536C20.7402 24.9474 20.8673 25 21 25H24.0018C24.267 25 24.5214 24.8947 24.7089 24.7072C24.8965 24.5196 25.0018 24.2653 25.0018 24V18.8419C25.0019 18.8081 24.995 18.7746 24.9818 18.7435C24.9685 18.7124 24.9491 18.6844 24.9246 18.661L19.1737 13.165Z" fill="white"/>
<path d="M26.3409 17.6297L24.0034 15.3934V12C24.0034 11.8674 23.9508 11.7402 23.857 11.6464C23.7632 11.5527 23.6361 11.5 23.5034 11.5H22.0034C21.8708 11.5 21.7437 11.5527 21.6499 11.6464C21.5561 11.7402 21.5034 11.8674 21.5034 12V13L19.6934 11.2694C19.5241 11.0981 19.2722 11 19 11C18.7288 11 18.4775 11.0981 18.3081 11.2697L11.6613 17.6291C11.4669 17.8166 11.4425 18.125 11.6194 18.3281C11.6638 18.3794 11.7182 18.4211 11.7792 18.4507C11.8403 18.4803 11.9067 18.4971 11.9745 18.5002C12.0422 18.5033 12.1099 18.4926 12.1734 18.4687C12.2369 18.4448 12.2949 18.4083 12.3438 18.3613L18.8281 12.165C18.8747 12.1205 18.9366 12.0957 19.0009 12.0957C19.0653 12.0957 19.1272 12.1205 19.1738 12.165L25.6588 18.3613C25.7543 18.4529 25.8822 18.5029 26.0146 18.5003C26.1469 18.4977 26.2728 18.4428 26.3647 18.3475C26.5566 18.1488 26.5406 17.8206 26.3409 17.6297Z" fill="white"/>
<defs>
<filter id="filter0_d_4683_61088" x="0" y="0" width="38" height="38" filterUnits="userSpaceOnUse" color-interpolation-filters="sRGB">
<feFlood flood-opacity="0" result="BackgroundImageFix"/>
<feColorMatrix in="SourceAlpha" type="matrix" values="0 0 0 0 0 0 0 0 0 0 0 0 0 0 0 0 0 0 127 0" result="hardAlpha"/>
<feOffset dy="1"/>
<feGaussianBlur stdDeviation="1.5"/>
<feColorMatrix type="matrix" values="0 0 0 0 0.0862745 0 0 0 0 0.117647 0 0 0 0 0.141176 0 0 0 0.1 0"/>
<feBlend mode="normal" in2="BackgroundImageFix" result="effect1_dropShadow_4683_61088"/>
<feBlend mode="normal" in="SourceGraphic" in2="effect1_dropShadow_4683_61088" result="shape"/>
</filter>
</defs>
</svg>
